<svg width="512" height="512" viewBox="0 0 512 512" fill="none" xmlns="http://www.w3.org/2000/svg">
  <rect width="512" height="512" rx="100" fill="#10b981"/>
  <path d="M148 212C148 198.745 158.745 188 172 188H204C217.255 188 228 198.745 228 212V300C228 313.255 217.255 324 204 324H172C158.745 324 148 313.255 148 300V212Z" fill="#09090b"/>
  <path d="M284 212C284 198.745 294.745 188 308 188H340C353.255 188 364 198.745 364 212V300C364 313.255 353.255 324 340 324H308C294.745 324 284 313.255 284 300V212Z" fill="#09090b"/>
  <rect x="228" y="244" width="56" height="24" fill="#09090b"/>
  <rect x="132" y="236" width="16" height="40" rx="4" fill="#09090b"/>
  <rect x="364" y="236" width="16" height="40" rx="4" fill="#09090b"/>
</svg>
